# xmcd CD database file
#
# Track frame offsets:
#	150
#	20847
#	39032
#	62495
#	76767
#	98517
#	115125
#	132085
#	149667
#	165910
#	182712
#	203510
#	220657
#	240107
#	250755
#
# Disc length: 3633 seconds
#
# Revision: 1
# Processed by: cddbd v1.5.2PL0 Copyright (c) Steve Scherf et al.
# Submitted via: CDex 1.51
#
DISCID=b10e2f0f
DTITLE=Sue Randy with The Bob Florence Group - Quietly There
DYEAR=1987
DGENRE=Jazz
TTITLE0=Lovers After All
TTITLE1=El Cajon
TTITLE2=Quietly There
TTITLE3=Sure AS You're Bom
TTITLE4=The Shining Sea
TTITLE5=The Shadow of Your Smile
TTITLE6=Chose Enough For Love
TTITLE7=Cinnamon And Clove
TTITLE8=Unless It's You
TTITLE9=Sulcide Is Painless
TTITLE10=You Are There
TTITLE11=A Time For Love
TTITLE12=Emily
TTITLE13=Don't Look Back
TTITLE14=Take Me Home
EXTD=YEAR: 1987
EXTT0=
EXTT1=
EXTT2=
EXTT3=
EXTT4=
EXTT5=
EXTT6=
EXTT7=
EXTT8=
EXTT9=
EXTT10=
EXTT11=
EXTT12=
EXTT13=
EXTT14=
PLAYORDER=
